<?xml version="1.0" standalone="no"?>
<!DOCTYPE svg PUBLIC "-//W3C//DTD SVG 20010904//EN"
 "http://www.w3.org/TR/2001/REC-SVG-20010904/DTD/svg10.dtd">
<svg version="1.0" xmlns="http://www.w3.org/2000/svg"
 width="512.000000pt" height="512.000000pt" viewBox="0 0 512.000000 512.000000"
 preserveAspectRatio="xMidYMid meet">
<metadata>
Created by potrace 1.14, written by Peter Selinger 2001-2017
</metadata>
<g transform="translate(0.000000,512.000000) scale(0.100000,-0.100000)"
fill="#000000" stroke="none">
<path d="M2539 5107 c-15 -11 -89 -112 -89 -121 0 -2 -17 -33 -39 -67 -78
-129 -373 -709 -500 -984 -23 -49 -46 -97 -52 -105 -5 -8 -13 -24 -18 -35 -26
-58 -71 -154 -127 -273 -35 -73 -64 -135 -64 -136 0 -2 -22 -50 -49 -107 -27
-57 -67 -144 -90 -194 -23 -49 -45 -96 -49 -104 -5 -9 -60 -25 -142 -42 -73
-15 -140 -31 -149 -34 -9 -4 -26 -9 -39 -11 -26 -5 -228 -70 -257 -83 -11 -5
-51 -23 -88 -40 -37 -17 -70 -31 -72 -31 -3 0 -5 154 -5 343 0 276 3 354 15
402 9 32 17 68 20 79 2 12 4 21 5 21 1 0 3 7 5 15 1 9 13 51 25 95 12 44 24
89 26 100 11 59 17 81 22 90 4 6 8 19 10 30 1 11 18 36 36 55 80 83 120 185
119 300 -2 188 -113 339 -292 400 -150 50 -318 11 -430 -101 -168 -167 -170
-427 -3 -603 17 -18 33 -44 36 -57 3 -13 24 -96 46 -184 23 -88 44 -171 46
-184 3 -14 7 -28 10 -33 3 -4 8 -18 11 -30 8 -31 11 -2348 3 -2353 -4 -2 -19
-6 -34 -9 -88 -16 -174 -87 -213 -175 -30 -67 -38 -207 -17 -281 8 -25 13 -45
12 -45 0 0 2 -10 6 -22 4 -12 2 -32 -4 -43 -21 -39 -23 -63 -25 -307 l-3 -243
2204 0 2205 0 -1 190 c-1 118 -7 214 -15 255 -17 79 -55 194 -66 201 -5 3 -9
14 -9 25 0 10 -4 19 -9 19 -5 0 -13 10 -17 23 -4 12 -9 24 -13 27 -3 3 -18 23
-33 45 -65 96 -183 198 -294 254 -138 69 -226 92 -374 96 -95 3 -105 5 -103
22 13 108 14 167 3 216 -11 53 -10 58 10 79 43 45 61 106 63 213 2 96 3 100
28 113 14 7 33 26 43 42 23 39 56 137 56 166 0 23 18 30 95 40 11 1 20 3 20 4
0 2 33 9 65 14 14 2 54 12 90 21 36 9 72 19 80 20 8 2 15 4 15 5 0 1 8 3 17 5
114 22 343 126 412 186 83 73 99 147 51 238 -36 71 -155 166 -290 233 -67 33
-196 85 -230 93 -5 2 -39 13 -75 25 -36 12 -76 24 -90 26 -14 3 -41 9 -60 15
-19 5 -79 18 -133 29 -100 20 -137 34 -137 50 0 4 -20 50 -44 102 -24 51 -71
152 -104 223 -71 154 -123 266 -202 430 -31 66 -81 171 -111 234 -98 209 -364
734 -438 866 -102 181 -167 276 -189 275 -4 0 -14 -6 -23 -13z m-1752 -2971
c110 -38 249 -77 324 -90 8 -1 23 -5 34 -8 19 -6 106 -20 133 -21 6 0 17 -19
22 -41 27 -113 69 -192 105 -202 18 -4 20 -14 21 -103 0 -107 17 -167 60 -212
20 -20 24 -32 18 -55 -13 -60 -13 -186 0 -225 13 -37 13 -39 -8 -39 -58 -1
-203 -10 -221 -14 -101 -21 -193 -55 -277 -102 l-57 -32 -23 27 c-35 41 -77
67 -143 89 l-60 19 -3 516 c-1 285 0 517 2 517 3 0 35 -11 73 -24z"/>
</g>
</svg>
