<?xml version="1.0" standalone="no"?>
<!DOCTYPE svg PUBLIC "-//W3C//DTD SVG 20010904//EN"
 "http://www.w3.org/TR/2001/REC-SVG-20010904/DTD/svg10.dtd">
<svg version="1.0" xmlns="http://www.w3.org/2000/svg"
 width="700.000000pt" height="700.000000pt" viewBox="0 0 700.000000 700.000000"
 preserveAspectRatio="xMidYMid meet">
<metadata>
Created by potrace 1.14, written by Peter Selinger 2001-2017
</metadata>
<g transform="translate(0.000000,700.000000) scale(0.100000,-0.100000)"
fill="#000000" stroke="none">
<path d="M3299 6996 c-2 -2 -49 -7 -103 -10 -55 -4 -102 -8 -105 -10 -3 -2
-35 -7 -70 -10 -35 -4 -85 -11 -110 -16 -59 -12 -99 -20 -136 -26 -110 -19
-454 -123 -565 -171 -19 -8 -44 -19 -55 -23 -133 -54 -365 -173 -500 -258 -94
-59 -309 -211 -360 -256 -16 -14 -53 -45 -82 -68 -52 -43 -299 -290 -361 -360
-155 -178 -330 -436 -456 -673 -73 -136 -206 -454 -203 -485 0 -3 -5 -15 -12
-27 -18 -34 -89 -290 -105 -378 -10 -55 -26 -140 -30 -160 -2 -12 -7 -48 -11
-80 -4 -33 -9 -69 -11 -80 -25 -135 -25 -678 1 -813 1 -9 6 -42 9 -73 4 -31 9
-67 11 -80 3 -13 7 -38 9 -54 18 -130 142 -568 190 -670 8 -16 24 -54 35 -83
27 -69 141 -296 194 -387 39 -68 184 -288 212 -323 7 -9 44 -56 82 -103 111
-140 200 -237 333 -361 69 -65 135 -125 147 -135 12 -10 30 -25 40 -33 187
-155 479 -340 708 -449 318 -151 759 -281 1070 -315 292 -32 701 -28 922 8 21
4 52 8 68 10 132 17 399 84 579 146 534 184 1015 493 1400 899 76 81 76 80
152 171 458 549 736 1221 802 1940 14 159 6 613 -13 720 -3 14 -7 45 -10 70
-3 25 -7 52 -10 60 -2 8 -7 35 -10 60 -43 321 -227 820 -427 1159 -49 85 -182
285 -202 307 -6 7 -20 24 -31 40 -91 129 -360 413 -514 544 -35 30 -69 60 -75
65 -49 46 -368 265 -386 265 -5 0 -10 5 -10 10 0 6 -5 10 -10 10 -6 0 -29 12
-53 27 -68 43 -306 159 -418 203 -210 84 -406 145 -596 185 -117 24 -305 52
-405 60 -74 7 -514 15 -519 11z"/>
</g>
</svg>
